<svg xmlns="http://www.w3.org/2000/svg" width="27.338" height="19.185" viewBox="0 0 27.338 19.185">
  <g id="go-back-arrow" transform="translate(0 -44.589)">
    <g id="Group_13" data-name="Group 13" transform="translate(0 44.589)">
      <path id="Path_27" data-name="Path 27" d="M26.775,63.774a.563.563,0,0,1-.5-.311c-.032-.063-2.609-4.841-13.364-5v4.752a.563.563,0,0,1-.9.446L.221,54.628a.561.561,0,0,1,0-.893L12.005,44.7a.562.562,0,0,1,.9.445v5.008c.284-.018.655-.034,1.092-.034,4.01,0,13.336,1.276,13.336,13.086a.562.562,0,0,1-.434.548A.508.508,0,0,1,26.775,63.774Z" transform="translate(0 -44.589)" fill="#595959"/>
    </g>
  </g>
</svg>
