<svg id="help" xmlns="http://www.w3.org/2000/svg" width="49.932" height="49.932" viewBox="0 0 49.932 49.932">
  <path id="Path_59" data-name="Path 59" d="M24.523,11A13.523,13.523,0,1,0,38.046,24.523,13.539,13.539,0,0,0,24.523,11Zm0,22.885a1.56,1.56,0,1,1,1.56-1.56A1.561,1.561,0,0,1,24.523,33.885Zm3.1-9.034a3.55,3.55,0,0,0-1.542,3.312,1.56,1.56,0,1,1-3.121,0,6.722,6.722,0,0,1,2.761-5.788,2.319,2.319,0,0,0,.88-1.839,2.087,2.087,0,1,0-4.161,0,1.56,1.56,0,1,1-3.121,0,5.2,5.2,0,1,1,10.4,0,5.464,5.464,0,0,1-2.1,4.317Z" transform="translate(11.885 11.885)" fill="#3d3d3d"/>
  <path id="Path_60" data-name="Path 60" d="M20.8,0l20.8,8.322L20.8,16.644,0,8.322Z" fill="#3d3d3d"/>
  <path id="Path_61" data-name="Path 61" d="M18.724,13.644,0,6.154V26.639a1.038,1.038,0,0,0,.68.976l18.044,6.647Z" transform="translate(0 6.649)" fill="#3d3d3d"/>
  <path id="Path_62" data-name="Path 62" d="M24.523,12.075a17.681,17.681,0,0,1,5.2.782v-6.7L11,13.644v4.744A17.65,17.65,0,0,1,24.523,12.075Z" transform="translate(11.885 6.649)" fill="#3d3d3d"/>
</svg>
