<svg id="import" xmlns="http://www.w3.org/2000/svg" width="49.932" height="49.932" viewBox="0 0 49.932 49.932">
  <path id="Path_55" data-name="Path 55" d="M24.523,11A13.523,13.523,0,1,0,38.046,24.523,13.539,13.539,0,0,0,24.523,11Zm5.842,17.168-4.681,5.2a1.564,1.564,0,0,1-2.322,0l-4.681-5.2a1.563,1.563,0,0,1,1.161-2.6h2.6V17.241a2.08,2.08,0,1,1,4.161,0v8.322h2.6A1.563,1.563,0,0,1,30.365,28.168Z" transform="translate(11.885 11.885)" fill="#3d3d3d"/>
  <path id="Path_56" data-name="Path 56" d="M20.8,0l20.8,8.322L20.8,16.644,0,8.322Z" fill="#3d3d3d"/>
  <path id="Path_57" data-name="Path 57" d="M18.724,13.644,0,6.154V26.639a1.038,1.038,0,0,0,.68.976l18.044,6.647Z" transform="translate(0 6.649)" fill="#3d3d3d"/>
  <path id="Path_58" data-name="Path 58" d="M24.523,12.075a17.681,17.681,0,0,1,5.2.782v-6.7L11,13.644v4.744A17.65,17.65,0,0,1,24.523,12.075Z" transform="translate(11.885 6.649)" fill="#3d3d3d"/>
</svg>
