<svg xmlns="http://www.w3.org/2000/svg" width="49.932" height="49.932" viewBox="0 0 49.932 49.932">
  <g id="import" opacity="0.334">
    <g id="Group_26" data-name="Group 26">
      <g id="add_2_" data-name="add (2)" transform="translate(22.885 22.885)">
        <g id="Group_25" data-name="Group 25">
          <path id="Path_64" data-name="Path 64" d="M13.576,0A13.576,13.576,0,0,0,0,13.47,13.667,13.667,0,0,0,13.576,27.046,13.523,13.523,0,0,0,13.576,0Zm7.131,15.055H15.161v5.652a1.585,1.585,0,0,1-3.17,0V15.055H6.339a1.585,1.585,0,0,1,0-3.17h5.652V6.339a1.585,1.585,0,1,1,3.17,0v5.547h5.547a1.585,1.585,0,0,1,0,3.17Z" fill="#3d3d3d"/>
        </g>
      </g>
    </g>
    <path id="Path_56" data-name="Path 56" d="M20.8,0l20.8,8.322L20.8,16.644,0,8.322Z" fill="#3d3d3d"/>
    <path id="Path_57" data-name="Path 57" d="M18.724,13.644,0,6.154V26.639a1.038,1.038,0,0,0,.68.976l18.044,6.647Z" transform="translate(0 6.649)" fill="#3d3d3d"/>
    <path id="Path_58" data-name="Path 58" d="M24.523,12.075a17.681,17.681,0,0,1,5.2.782v-6.7L11,13.644v4.744A17.65,17.65,0,0,1,24.523,12.075Z" transform="translate(11.885 6.649)" fill="#3d3d3d"/>
  </g>
</svg>
