<svg xmlns="http://www.w3.org/2000/svg" width="98.449" height="20.981" viewBox="0 0 98.449 20.981">
  <g id="Group_1" data-name="Group 1" transform="translate(-78.002 -389.653)">
    <path id="Path_49" data-name="Path 49" d="M84.73,411.285a17.1,17.1,0,0,1,9.51-8.231l.184-.091a5.926,5.926,0,0,1,.731.777c.274.366.548.823.822,1.235l.046.137.55.914c-.321.137-.641.228-1.052.411a14.308,14.308,0,0,0-6.584,4.847ZM89.85,397.2a12.443,12.443,0,0,1,7,1.692,8.186,8.186,0,0,1,2.194,2.149,3.918,3.918,0,0,0,2.242-3.383,3.59,3.59,0,0,0-1.007-2.7,4.769,4.769,0,0,0-3.2-.96H87.152v5.35h0v4.8h0v1.967c-.274.32-.594.595-.868.915a16.167,16.167,0,0,0-2.744,4.115V390.389H97.075a8.175,8.175,0,0,1,5.624,1.921,7.077,7.077,0,0,1,2.242,5.35,6.856,6.856,0,0,1-4.024,6.492l3.977,7.133h-4.115l-3.84-6.859h0a6.979,6.979,0,0,0-2.1-2.515,9.1,9.1,0,0,0-4.984-1.1Z" transform="translate(-5.538 -0.651)" fill="#3d3d3d" fill-rule="evenodd"/>
    <g id="Group_22" data-name="Group 22" transform="translate(100.531 389.719)">
      <path id="Path_50" data-name="Path 50" d="M278.357,411.092V390.223h14.592v3.7h-9.837v4.81h8.532V402.4h-8.532v5h10.027v3.7Z" transform="translate(-278.357 -390.223)" fill="#3d3d3d"/>
      <path id="Path_51" data-name="Path 51" d="M451.659,390.223v20.869h-4.728V397.315h-.054l-4.483,13.777h-4.022l-4.484-13.722h-.054v13.722h-4.619V390.223h6.44l4.81,15.027h.054l4.783-15.027Z" transform="translate(-411.769 -390.223)" fill="#3d3d3d"/>
    </g>
    <g id="Group_23" data-name="Group 23" transform="translate(158.68 389.719)">
      <path id="Path_52" data-name="Path 52" d="M788.834,402.4H785.98v8.7H781.2V390.223h4.782v8.505h2.907l4.565-8.505h5.217l-5.734,10.271,6.032,10.6h-5.407Z" transform="translate(-781.198 -390.223)" fill="#3d3d3d"/>
    </g>
    <g id="Group_24" data-name="Group 24" transform="translate(135.725 389.653)">
      <path id="Path_53" data-name="Path 53" d="M646.727,408.972l.95,1.616h13.005l.9-1.616-4.652-8.068-1.851,3.228,1.851,3.228h-5.553l8.354-14.478-1.851-3.228Z" transform="translate(-639.323 -389.653)" fill="#3d3d3d" fill-rule="evenodd"/>
      <path id="Path_54" data-name="Path 54" d="M596.6,394.5l-2.8-4.842c-3.7,6.456-7.405,12.865-11.107,19.319l.9,1.616h3.751l-.95-1.616c2.468-4.318,4.937-8.59,7.405-12.863l.949,1.614Z" transform="translate(-582.697 -389.653)" fill="#3d3d3d" fill-rule="evenodd"/>
    </g>
  </g>
</svg>
