<svg id="active" xmlns="http://www.w3.org/2000/svg" width="30.142" height="30.142" viewBox="0 0 30.142 30.142">
  <path id="Path_69" data-name="Path 69" d="M242.831,0a8.163,8.163,0,1,0,8.163,8.163A8.173,8.173,0,0,0,242.831,0Zm1.256,10.989a.942.942,0,0,1-1.884,0V6.907h-.628a.942.942,0,1,1,0-1.884h1.57a.942.942,0,0,1,.942.942Zm0,0" transform="translate(-220.853)" fill="#eb3a3a"/>
  <path id="Path_70" data-name="Path 70" d="M138.047,346.356a5.024,5.024,0,1,1-5.024-5.024A5.024,5.024,0,0,1,138.047,346.356Zm0,0" transform="translate(-120.465 -321.238)" fill="#3d3d3d" opacity="0.5"/>
  <path id="Path_71" data-name="Path 71" d="M22.38,58.975c-.134,0-.266.02-.4.02a10.654,10.654,0,0,1-9.051-16.308c-.123-.005-.244-.019-.368-.019a8.8,8.8,0,0,0-8.791,8.791v3.5a8.421,8.421,0,0,1-3,6.447A2.2,2.2,0,0,0,2.2,65.274H22.92A2.2,2.2,0,0,0,24.337,61.4,8.424,8.424,0,0,1,22.38,58.975Zm0,0" transform="translate(0 -40.156)" fill="#3d3d3d"/>
</svg>
