<svg id="alarm_1_" data-name="alarm (1)" xmlns="http://www.w3.org/2000/svg" width="30.317" height="30.317" viewBox="0 0 30.317 30.317">
  <path id="Path_72" data-name="Path 72" d="M242.879,0a8.211,8.211,0,1,0,8.211,8.211A8.22,8.22,0,0,0,242.879,0Zm3.8,6.828-4.105,4.737a1.27,1.27,0,0,1-.909.436h-.046a1.262,1.262,0,0,1-.893-.37L238.512,9.42A1.263,1.263,0,1,1,240.3,7.634l1.252,1.252,3.216-3.711a1.263,1.263,0,1,1,1.91,1.654Zm0,0" transform="translate(-220.772)" fill="#4caf50"/>
  <path id="Path_73" data-name="Path 73" d="M138.106,346.385a5.053,5.053,0,1,1-5.053-5.053A5.053,5.053,0,0,1,138.106,346.385Zm0,0" transform="translate(-120.421 -321.121)" fill="#3d3d3d" opacity="0.501"/>
  <path id="Path_74" data-name="Path 74" d="M22.511,59.07c-.135,0-.268.02-.4.02a10.716,10.716,0,0,1-9.1-16.4c-.124-.005-.245-.019-.37-.019A8.852,8.852,0,0,0,3.79,51.51v3.522A8.47,8.47,0,0,1,.773,61.516a2.21,2.21,0,0,0,1.438,3.89H23.054a2.211,2.211,0,0,0,1.425-3.9A8.474,8.474,0,0,1,22.511,59.07Zm0,0" transform="translate(0 -40.141)" fill="#3d3d3d"/>
</svg>
